<mxfile host="app.diagrams.net" modified="2024-06-18T21:19:29.402Z" agent="Mozilla/5.0 (X11; Linux x86_64) AppleWebKit/537.36 (KHTML, like Gecko) Chrome/126.0.0.0 Safari/537.36" etag="Km-zBhl-rftLd-MhbtmI" version="24.5.5" type="device">
  <diagram name="Page-1" id="gGOpEWth4ZXaPEtdQVqK">
    <mxGraphModel dx="939" dy="1071" grid="1" gridSize="10" guides="1" tooltips="1" connect="1" arrows="1" fold="1" page="1" pageScale="1" pageWidth="850" pageHeight="1100" math="0" shadow="0">
      <root>
        <mxCell id="0" />
        <mxCell id="1" parent="0" />
        <mxCell id="-uCsQ_uX8Lxtpei__hgV-1" value="Kubernetes Cluster" style="ellipse;whiteSpace=wrap;html=1;aspect=fixed;labelPosition=center;verticalLabelPosition=top;align=right;verticalAlign=bottom;fontSize=18;" vertex="1" parent="1">
          <mxGeometry x="145" y="243" width="520" height="520" as="geometry" />
        </mxCell>
        <mxCell id="-uCsQ_uX8Lxtpei__hgV-2" value="&lt;div style=&quot;font-size: 14px;&quot;&gt;Remote&lt;/div&gt;&lt;div style=&quot;font-size: 14px;&quot;&gt;Metric&lt;/div&gt;&lt;div style=&quot;font-size: 14px;&quot;&gt;Source&lt;/div&gt;" style="shape=dataStorage;whiteSpace=wrap;html=1;fixedSize=1;fontSize=14;align=center;" vertex="1" parent="1">
          <mxGeometry x="54" y="350" width="100" height="80" as="geometry" />
        </mxCell>
        <mxCell id="-uCsQ_uX8Lxtpei__hgV-24" value="" style="edgeStyle=orthogonalEdgeStyle;rounded=0;orthogonalLoop=1;jettySize=auto;html=1;dashed=1;" edge="1" parent="1" source="-uCsQ_uX8Lxtpei__hgV-3" target="-uCsQ_uX8Lxtpei__hgV-2">
          <mxGeometry relative="1" as="geometry" />
        </mxCell>
        <mxCell id="-uCsQ_uX8Lxtpei__hgV-3" value="In-Cluster&amp;nbsp; &amp;nbsp;&lt;div style=&quot;font-size: 14px;&quot;&gt;Metrics&lt;/div&gt;" style="shape=dataStorage;whiteSpace=wrap;html=1;fixedSize=1;fontSize=14;align=center;" vertex="1" parent="1">
          <mxGeometry x="190" y="350" width="100" height="80" as="geometry" />
        </mxCell>
        <mxCell id="-uCsQ_uX8Lxtpei__hgV-8" style="edgeStyle=orthogonalEdgeStyle;rounded=0;orthogonalLoop=1;jettySize=auto;html=1;exitX=0.5;exitY=0;exitDx=0;exitDy=0;exitPerimeter=0;entryX=0.5;entryY=1;entryDx=0;entryDy=0;fillColor=#d5e8d4;strokeColor=#82b366;" edge="1" parent="1" source="-uCsQ_uX8Lxtpei__hgV-6" target="-uCsQ_uX8Lxtpei__hgV-3">
          <mxGeometry relative="1" as="geometry" />
        </mxCell>
        <mxCell id="-uCsQ_uX8Lxtpei__hgV-6" value="Kubernetes&lt;div&gt;API Server&lt;/div&gt;" style="shape=cylinder3;whiteSpace=wrap;html=1;boundedLbl=1;backgroundOutline=1;size=15;" vertex="1" parent="1">
          <mxGeometry x="195" y="513" width="90" height="75" as="geometry" />
        </mxCell>
        <mxCell id="-uCsQ_uX8Lxtpei__hgV-11" style="edgeStyle=orthogonalEdgeStyle;rounded=0;orthogonalLoop=1;jettySize=auto;html=1;exitX=0.5;exitY=1;exitDx=0;exitDy=0;exitPerimeter=0;fillColor=#d5e8d4;strokeColor=#82b366;" edge="1" parent="1" source="-uCsQ_uX8Lxtpei__hgV-9" target="-uCsQ_uX8Lxtpei__hgV-6">
          <mxGeometry relative="1" as="geometry">
            <Array as="points">
              <mxPoint x="405" y="680" />
              <mxPoint x="240" y="680" />
            </Array>
          </mxGeometry>
        </mxCell>
        <mxCell id="-uCsQ_uX8Lxtpei__hgV-9" value="Containerized&lt;div&gt;Applications&lt;/div&gt;" style="aspect=fixed;sketch=0;html=1;dashed=0;whitespace=wrap;verticalLabelPosition=middle;verticalAlign=middle;fillColor=#2875E2;strokeColor=#ffffff;points=[[0.005,0.63,0],[0.1,0.2,0],[0.9,0.2,0],[0.5,0,0],[0.995,0.63,0],[0.72,0.99,0],[0.5,1,0],[0.28,0.99,0]];shape=mxgraph.kubernetes.icon2;kubernetesLabel=1;prIcon=pod;labelPosition=left;align=right;" vertex="1" parent="1">
          <mxGeometry x="380" y="600" width="50" height="48" as="geometry" />
        </mxCell>
        <mxCell id="-uCsQ_uX8Lxtpei__hgV-12" style="edgeStyle=orthogonalEdgeStyle;rounded=0;orthogonalLoop=1;jettySize=auto;html=1;exitX=0.5;exitY=1;exitDx=0;exitDy=0;exitPerimeter=0;fillColor=#d5e8d4;strokeColor=#82b366;" edge="1" parent="1" source="-uCsQ_uX8Lxtpei__hgV-10">
          <mxGeometry relative="1" as="geometry">
            <mxPoint x="240" y="590" as="targetPoint" />
            <Array as="points">
              <mxPoint x="465" y="680" />
              <mxPoint x="241" y="680" />
            </Array>
          </mxGeometry>
        </mxCell>
        <mxCell id="-uCsQ_uX8Lxtpei__hgV-10" value="Virtual&lt;div&gt;&lt;span style=&quot;background-color: initial;&quot;&gt;Machines&lt;/span&gt;&lt;/div&gt;" style="aspect=fixed;sketch=0;html=1;dashed=0;whitespace=wrap;verticalLabelPosition=middle;verticalAlign=middle;fillColor=#2875E2;strokeColor=#ffffff;points=[[0.005,0.63,0],[0.1,0.2,0],[0.9,0.2,0],[0.5,0,0],[0.995,0.63,0],[0.72,0.99,0],[0.5,1,0],[0.28,0.99,0]];shape=mxgraph.kubernetes.icon2;kubernetesLabel=1;prIcon=pod;labelPosition=right;align=left;" vertex="1" parent="1">
          <mxGeometry x="440" y="600" width="50" height="48" as="geometry" />
        </mxCell>
        <mxCell id="-uCsQ_uX8Lxtpei__hgV-20" style="edgeStyle=orthogonalEdgeStyle;rounded=0;orthogonalLoop=1;jettySize=auto;html=1;exitX=1;exitY=0;exitDx=0;exitDy=48.75;exitPerimeter=0;entryX=0.5;entryY=0;entryDx=0;entryDy=0;entryPerimeter=0;fillColor=#ffe6cc;strokeColor=#d79b00;dashed=1;" edge="1" parent="1" source="-uCsQ_uX8Lxtpei__hgV-6" target="-uCsQ_uX8Lxtpei__hgV-9">
          <mxGeometry relative="1" as="geometry" />
        </mxCell>
        <mxCell id="-uCsQ_uX8Lxtpei__hgV-21" value="3" style="edgeStyle=orthogonalEdgeStyle;rounded=0;orthogonalLoop=1;jettySize=auto;html=1;exitX=1;exitY=0;exitDx=0;exitDy=48.75;exitPerimeter=0;entryX=0.5;entryY=0;entryDx=0;entryDy=0;entryPerimeter=0;fillColor=#ffe6cc;strokeColor=#d79b00;dashed=1;" edge="1" parent="1" source="-uCsQ_uX8Lxtpei__hgV-6" target="-uCsQ_uX8Lxtpei__hgV-10">
          <mxGeometry relative="1" as="geometry" />
        </mxCell>
        <mxCell id="-uCsQ_uX8Lxtpei__hgV-26" value="" style="aspect=fixed;sketch=0;html=1;dashed=0;whitespace=wrap;verticalLabelPosition=bottom;verticalAlign=top;fillColor=#2875E2;strokeColor=#ffffff;points=[[0.005,0.63,0],[0.1,0.2,0],[0.9,0.2,0],[0.5,0,0],[0.995,0.63,0],[0.72,0.99,0],[0.5,1,0],[0.28,0.99,0]];shape=mxgraph.kubernetes.icon2;kubernetesLabel=1;prIcon=crd" vertex="1" parent="1">
          <mxGeometry x="570" y="660" width="50" height="48" as="geometry" />
        </mxCell>
        <mxCell id="-uCsQ_uX8Lxtpei__hgV-28" value="" style="group" vertex="1" connectable="0" parent="1">
          <mxGeometry x="380" y="413" width="260" height="100" as="geometry" />
        </mxCell>
        <mxCell id="-uCsQ_uX8Lxtpei__hgV-13" value="Dukat" style="rounded=0;whiteSpace=wrap;html=1;verticalAlign=bottom;labelPosition=center;verticalLabelPosition=top;align=right;fontSize=18;" vertex="1" parent="-uCsQ_uX8Lxtpei__hgV-28">
          <mxGeometry width="260" height="100" as="geometry" />
        </mxCell>
        <mxCell id="-uCsQ_uX8Lxtpei__hgV-15" value="Scaler" style="rounded=0;whiteSpace=wrap;html=1;" vertex="1" parent="-uCsQ_uX8Lxtpei__hgV-28">
          <mxGeometry x="10" y="20" width="70" height="60" as="geometry" />
        </mxCell>
        <mxCell id="-uCsQ_uX8Lxtpei__hgV-14" value="Metric&lt;div&gt;Scouter&lt;/div&gt;" style="rounded=0;whiteSpace=wrap;html=1;" vertex="1" parent="-uCsQ_uX8Lxtpei__hgV-28">
          <mxGeometry x="95" y="20" width="70" height="60" as="geometry" />
        </mxCell>
        <mxCell id="-uCsQ_uX8Lxtpei__hgV-16" value="Admission&lt;div&gt;Controller&lt;/div&gt;" style="rounded=0;whiteSpace=wrap;html=1;" vertex="1" parent="-uCsQ_uX8Lxtpei__hgV-28">
          <mxGeometry x="180" y="20" width="70" height="60" as="geometry" />
        </mxCell>
        <mxCell id="-uCsQ_uX8Lxtpei__hgV-27" value="1" style="edgeStyle=orthogonalEdgeStyle;rounded=0;orthogonalLoop=1;jettySize=auto;html=1;entryX=0.5;entryY=1;entryDx=0;entryDy=0;fillColor=#ffe6cc;strokeColor=#d79b00;" edge="1" parent="1" source="-uCsQ_uX8Lxtpei__hgV-26" target="-uCsQ_uX8Lxtpei__hgV-16">
          <mxGeometry relative="1" as="geometry" />
        </mxCell>
        <mxCell id="-uCsQ_uX8Lxtpei__hgV-17" value="3" style="edgeStyle=orthogonalEdgeStyle;rounded=0;orthogonalLoop=1;jettySize=auto;html=1;exitX=0;exitY=0.5;exitDx=0;exitDy=0;entryX=0.785;entryY=-0.025;entryDx=0;entryDy=0;entryPerimeter=0;fillColor=#ffe6cc;strokeColor=#d79b00;dashed=1;" edge="1" parent="1" source="-uCsQ_uX8Lxtpei__hgV-15" target="-uCsQ_uX8Lxtpei__hgV-6">
          <mxGeometry relative="1" as="geometry" />
        </mxCell>
        <mxCell id="-uCsQ_uX8Lxtpei__hgV-18" value="2" style="edgeStyle=orthogonalEdgeStyle;rounded=0;orthogonalLoop=1;jettySize=auto;html=1;exitX=0.5;exitY=0;exitDx=0;exitDy=0;entryX=1;entryY=0.5;entryDx=0;entryDy=0;fillColor=#ffe6cc;strokeColor=#d79b00;startArrow=classic;startFill=1;" edge="1" parent="1" source="-uCsQ_uX8Lxtpei__hgV-14" target="-uCsQ_uX8Lxtpei__hgV-3">
          <mxGeometry relative="1" as="geometry" />
        </mxCell>
        <mxCell id="-uCsQ_uX8Lxtpei__hgV-23" value="2" style="edgeStyle=orthogonalEdgeStyle;rounded=0;orthogonalLoop=1;jettySize=auto;html=1;exitX=0.5;exitY=0;exitDx=0;exitDy=0;entryX=0.5;entryY=0;entryDx=0;entryDy=0;fillColor=#ffe6cc;strokeColor=#d79b00;" edge="1" parent="1" source="-uCsQ_uX8Lxtpei__hgV-14" target="-uCsQ_uX8Lxtpei__hgV-2">
          <mxGeometry relative="1" as="geometry" />
        </mxCell>
        <mxCell id="-uCsQ_uX8Lxtpei__hgV-29" value="Key Metric Indicator" style="swimlane;fontStyle=0;childLayout=stackLayout;horizontal=1;startSize=30;horizontalStack=0;resizeParent=1;resizeParentMax=0;resizeLast=0;collapsible=1;marginBottom=0;whiteSpace=wrap;html=1;" vertex="1" parent="1">
          <mxGeometry x="600" y="710" width="140" height="150" as="geometry">
            <mxRectangle x="600" y="710" width="60" height="30" as="alternateBounds" />
          </mxGeometry>
        </mxCell>
        <mxCell id="-uCsQ_uX8Lxtpei__hgV-30" value="Compute related" style="text;strokeColor=none;fillColor=none;align=left;verticalAlign=middle;spacingLeft=4;spacingRight=4;overflow=hidden;points=[[0,0.5],[1,0.5]];portConstraint=eastwest;rotatable=0;whiteSpace=wrap;html=1;" vertex="1" parent="-uCsQ_uX8Lxtpei__hgV-29">
          <mxGeometry y="30" width="140" height="30" as="geometry" />
        </mxCell>
        <mxCell id="-uCsQ_uX8Lxtpei__hgV-31" value="Cost related" style="text;strokeColor=none;fillColor=none;align=left;verticalAlign=middle;spacingLeft=4;spacingRight=4;overflow=hidden;points=[[0,0.5],[1,0.5]];portConstraint=eastwest;rotatable=0;whiteSpace=wrap;html=1;" vertex="1" parent="-uCsQ_uX8Lxtpei__hgV-29">
          <mxGeometry y="60" width="140" height="30" as="geometry" />
        </mxCell>
        <mxCell id="-uCsQ_uX8Lxtpei__hgV-32" value="Combo" style="text;strokeColor=none;fillColor=none;align=left;verticalAlign=middle;spacingLeft=4;spacingRight=4;overflow=hidden;points=[[0,0.5],[1,0.5]];portConstraint=eastwest;rotatable=0;whiteSpace=wrap;html=1;" vertex="1" parent="-uCsQ_uX8Lxtpei__hgV-29">
          <mxGeometry y="90" width="140" height="30" as="geometry" />
        </mxCell>
        <mxCell id="-uCsQ_uX8Lxtpei__hgV-34" value="Action(s)" style="text;strokeColor=none;fillColor=none;align=left;verticalAlign=middle;spacingLeft=4;spacingRight=4;overflow=hidden;points=[[0,0.5],[1,0.5]];portConstraint=eastwest;rotatable=0;whiteSpace=wrap;html=1;" vertex="1" parent="-uCsQ_uX8Lxtpei__hgV-29">
          <mxGeometry y="120" width="140" height="30" as="geometry" />
        </mxCell>
      </root>
    </mxGraphModel>
  </diagram>
</mxfile>
